<svg width="18" height="18" viewBox="0 0 18 18" fill="none" xmlns="http://www.w3.org/2000/svg">
<g id="calendar / calendar">
<path id="coolicon" d="M13.8611 16.178H4.13889C3.37183 16.178 2.75 15.5561 2.75 14.7891V5.06684C2.75 4.29978 3.37183 3.67795 4.13889 3.67795H5.52778V2.28906H6.91667V3.67795H11.0833V2.28906H12.4722V3.67795H13.8611C14.6282 3.67795 15.25 4.29978 15.25 5.06684V14.7891C15.25 15.5561 14.6282 16.178 13.8611 16.178ZM4.13889 7.84462V14.7891H13.8611V7.84462H4.13889ZM4.13889 5.06684V6.45573H13.8611V5.06684H4.13889ZM12.4722 13.4002H11.0833V12.0113H12.4722V13.4002ZM9.69444 13.4002H8.30556V12.0113H9.69444V13.4002ZM6.91667 13.4002H5.52778V12.0113H6.91667V13.4002ZM12.4722 10.6224H11.0833V9.23351H12.4722V10.6224ZM9.69444 10.6224H8.30556V9.23351H9.69444V10.6224ZM6.91667 10.6224H5.52778V9.23351H6.91667V10.6224Z" fill="#B7B7B7"/>
</g>
</svg>
