<svg width="21" height="20" viewBox="0 0 21 20" fill="none" xmlns="http://www.w3.org/2000/svg">
<g id="basic / alarm">
<path id="coolicon" d="M10.8325 18.3329C6.71306 18.2786 3.38679 14.9523 3.33249 10.8329C3.38679 6.71342 6.71306 3.38715 10.8325 3.33286C14.9519 3.38715 18.2782 6.71342 18.3325 10.8329C18.2782 14.9523 14.9519 18.2786 10.8325 18.3329ZM10.8325 4.99952C7.62847 5.04171 5.04134 7.62883 4.99916 10.8329C5.04134 14.0369 7.62847 16.624 10.8325 16.6662C14.0365 16.624 16.6236 14.0369 16.6658 10.8329C16.6236 7.62883 14.0365 5.04171 10.8325 4.99952ZM14.9992 11.6662H9.99916V6.66619H11.6658V9.99952H14.9992V11.6662ZM17.7425 5.58952L15.235 3.08952L16.4092 1.90869L18.9175 4.40869L17.7425 5.58869V5.58952ZM3.92166 5.58952L2.74249 4.40869L5.23499 1.90869L6.41416 3.08952L3.92333 5.58952H3.92166Z" fill="#FF6916"/>
</g>
</svg>
