<svg width="20" height="20" viewBox="0 0 20 20" fill="none" xmlns="http://www.w3.org/2000/svg">
<g id="brand / facebook">
<path id="coolicon" d="M1.66846 10.0016C1.66943 14.1011 4.65046 17.5916 8.69929 18.2341V12.41H6.58512V10.0016H8.70179V8.16829C8.60717 7.29957 8.90389 6.43378 9.51149 5.80573C10.1191 5.17768 10.9746 4.85247 11.846 4.91829C12.4714 4.92839 13.0953 4.98409 13.7126 5.08496V7.13412H12.6593C12.2967 7.08663 11.9321 7.20639 11.6683 7.45968C11.4044 7.71297 11.2699 8.07236 11.3026 8.43662V10.0016H13.6118L13.2426 12.4108H11.3026V18.2341C15.6814 17.5421 18.7519 13.5431 18.2897 9.13418C17.8276 4.72526 13.9945 1.4499 9.56748 1.68094C5.14043 1.91198 1.66916 5.56855 1.66846 10.0016Z" fill="#2C2C2C"/>
</g>
</svg>
