<svg width="21" height="21" viewBox="0 0 21 21" fill="none" xmlns="http://www.w3.org/2000/svg">
<g id="globe">
<path id="Vector (Stroke)" fill-rule="evenodd" clip-rule="evenodd" d="M10.5 3.68117C6.73438 3.68117 3.68178 6.73377 3.68178 10.4993C3.68178 14.2649 6.73438 17.3175 10.5 17.3175C14.2655 17.3175 17.3181 14.2649 17.3181 10.4993C17.3181 6.73377 14.2655 3.68117 10.5 3.68117ZM2.16663 10.4993C2.16663 5.89698 5.89759 2.16602 10.5 2.16602C15.1023 2.16602 18.8333 5.89698 18.8333 10.4993C18.8333 15.1017 15.1023 18.8327 10.5 18.8327C5.89759 18.8327 2.16663 15.1017 2.16663 10.4993Z" fill="#FF6916"/>
<path id="Vector (Stroke)_2" fill-rule="evenodd" clip-rule="evenodd" d="M2.16663 10.4993C2.16663 10.0391 2.5058 9.66602 2.9242 9.66602H18.0757C18.4941 9.66602 18.8333 10.0391 18.8333 10.4993C18.8333 10.9596 18.4941 11.3327 18.0757 11.3327H2.9242C2.5058 11.3327 2.16663 10.9596 2.16663 10.4993Z" fill="#FF6916"/>
<path id="Vector (Stroke)_3" fill-rule="evenodd" clip-rule="evenodd" d="M8.00023 10.3742C8.05735 12.7386 8.93859 15.0149 10.5 16.8712C12.0615 15.0149 12.9427 12.7386 12.9998 10.3742C12.9427 8.00976 12.0615 5.73341 10.5 3.87711C8.93859 5.73341 8.05735 8.00976 8.00023 10.3742ZM10.5 2.68462L9.88475 2.16602C7.66412 4.40931 6.40213 7.32054 6.33355 10.3582C6.33331 10.3688 6.33331 10.3795 6.33355 10.3902C6.40213 13.4278 7.66412 16.339 9.88475 18.5823C10.0426 18.7418 10.2659 18.8327 10.5 18.8327C10.7341 18.8327 10.9574 18.7418 11.1153 18.5823C13.336 16.339 14.5979 13.4278 14.6665 10.3902C14.6668 10.3795 14.6668 10.3688 14.6665 10.3582C14.5979 7.32054 13.336 4.40931 11.1153 2.16602L10.5 2.68462Z" fill="#FF6916"/>
</g>
</svg>
