<svg width="21" height="21" viewBox="0 0 21 21" fill="none" xmlns="http://www.w3.org/2000/svg">
<g id="map-pin">
<path id="Vector (Stroke)" fill-rule="evenodd" clip-rule="evenodd" d="M10.5 3.02779C8.9087 3.02779 7.38258 3.67164 6.25736 4.81771C5.13214 5.96377 4.5 7.51817 4.5 9.13895C4.5 11.5055 6.0118 13.802 7.66946 15.5841C8.48296 16.4587 9.299 17.1747 9.91251 17.6723C10.1408 17.8575 10.3403 18.0117 10.5 18.132C10.6597 18.0117 10.8592 17.8575 11.0875 17.6723C11.701 17.1747 12.517 16.4587 13.3305 15.5841C14.9882 13.802 16.5 11.5055 16.5 9.13895C16.5 7.51817 15.8679 5.96377 14.7426 4.81771C13.6174 3.67164 12.0913 3.02779 10.5 3.02779ZM10.5 19.0696C10.084 19.7052 10.0838 19.705 10.0836 19.7049L10.0814 19.7034L10.0764 19.7L10.0592 19.6882C10.0446 19.6781 10.0238 19.6636 9.99717 19.6448C9.9439 19.6072 9.86735 19.5525 9.77084 19.4815C9.57791 19.3395 9.30477 19.1324 8.97812 18.8675C8.326 18.3386 7.45454 17.5745 6.58054 16.6348C4.8632 14.7885 3 12.1196 3 9.13895C3 7.11297 3.79018 5.16998 5.1967 3.7374C6.60322 2.30482 8.51088 1.5 10.5 1.5C12.4891 1.5 14.3968 2.30482 15.8033 3.7374C17.2098 5.16998 18 7.11297 18 9.13895C18 12.1196 16.1368 14.7885 14.4195 16.6348C13.5455 17.5745 12.674 18.3386 12.0219 18.8675C11.6952 19.1324 11.4221 19.3395 11.2292 19.4815C11.1327 19.5525 11.0561 19.6072 11.0028 19.6448C10.9762 19.6636 10.9554 19.6781 10.9408 19.6882L10.9236 19.7L10.9186 19.7034L10.917 19.7045C10.9168 19.7047 10.916 19.7052 10.5 19.0696ZM10.5 19.0696L10.916 19.7052C10.6641 19.8762 10.3355 19.876 10.0836 19.7049L10.5 19.0696Z" fill="#FF6916"/>
<path id="Vector (Stroke)_2" fill-rule="evenodd" clip-rule="evenodd" d="M10.5 7.33366C9.57948 7.33366 8.83329 8.07985 8.83329 9.00033C8.83329 9.9208 9.57948 10.667 10.5 10.667C11.4204 10.667 12.1666 9.9208 12.1666 9.00033C12.1666 8.07985 11.4204 7.33366 10.5 7.33366ZM7.16663 9.00033C7.16663 7.15938 8.65901 5.66699 10.5 5.66699C12.3409 5.66699 13.8333 7.15938 13.8333 9.00033C13.8333 10.8413 12.3409 12.3337 10.5 12.3337C8.65901 12.3337 7.16663 10.8413 7.16663 9.00033Z" fill="#FF6916"/>
</g>
</svg>
