<svg width="16" height="16" viewBox="0 0 16 16" fill="none" xmlns="http://www.w3.org/2000/svg">
<g id="Group 747">
<g id="Group">
<path id="Vector" d="M1.9972 0.36084C5.77659 0.36084 9.55637 0.36084 13.3358 0.36084C13.3582 0.370182 13.3799 0.384382 13.4034 0.388118C14.5089 0.567485 15.3026 1.48076 15.3034 2.59208C15.306 6.19735 15.3064 9.80261 15.3034 13.4075C15.3023 14.6414 14.3097 15.6343 13.0757 15.6354C9.47004 15.6384 5.86442 15.6425 2.25917 15.6324C1.33011 15.6298 0.652191 15.1746 0.242971 14.3436C0.139825 14.1336 0.0979687 13.8937 0.02771 13.6676C0.02771 9.88856 0.02771 6.10916 0.02771 2.33013C0.0370529 2.30734 0.0508804 2.28566 0.0549913 2.26212C0.188782 1.4688 0.623788 0.899686 1.34917 0.562253C1.55247 0.468086 1.78044 0.426607 1.9972 0.36084ZM7.55698 3.94817C5.23358 4.03337 3.44946 6.06058 3.69649 8.40206C3.91623 10.4861 5.78893 12.2057 8.12578 11.9681C10.2033 11.7566 11.9362 9.88519 11.6951 7.54371C11.478 5.43878 9.6569 3.87717 7.55698 3.94817ZM13.5129 3.5147C13.5021 2.81255 13.0095 2.18253 12.1967 2.15899C11.5046 2.13918 10.8633 2.64477 10.8375 3.46537C10.815 4.17088 11.3364 4.81099 12.1548 4.82856C12.8653 4.84388 13.4677 4.31998 13.5129 3.5147Z" fill="#2C2C2C"/>
<path id="Vector_2" d="M7.70283 4.83692C9.43389 4.83953 10.8346 6.24905 10.829 7.98293C10.8234 9.70709 9.41707 11.1039 7.69013 11.1013C5.95907 11.0987 4.55838 9.68915 4.56398 7.95528C4.56959 6.23112 5.97589 4.8343 7.70283 4.83692Z" fill="#2C2C2C"/>
<path id="Vector_3" d="M12.1694 3.94035C11.9175 3.93923 11.7213 3.73707 11.7258 3.48334C11.7299 3.23858 11.9283 3.04576 12.1754 3.04688C12.4272 3.048 12.6234 3.25016 12.619 3.50389C12.6148 3.74865 12.416 3.94147 12.1694 3.94035Z" fill="#2C2C2C"/>
</g>
</g>
</svg>
