<svg width="21" height="21" viewBox="0 0 21 21" fill="none" xmlns="http://www.w3.org/2000/svg">
<g id="basic / phone_outline">
<path id="coolicon" d="M8.11843 7.90141C7.22416 8.66128 6.89644 10.0471 7.66862 11.1588C8.39122 12.1992 9.30144 13.1092 10.3416 13.8315C11.4534 14.6035 12.8391 14.2757 13.5989 13.3814L13.6074 13.3853C14.5778 13.8349 15.6086 14.143 16.6666 14.3001V16.4998L16.6657 16.4998L16.6634 16.4998C10.0179 16.5093 4.99288 11.4258 4.99999 4.83616V4.83317H7.19945L7.1996 4.83415C7.35664 5.89205 7.66465 6.92195 8.11426 7.8924L8.11843 7.90141ZM16.6657 18.1665H17.5C17.9602 18.1665 18.3333 17.7934 18.3333 17.3332V13.5813C18.3333 13.1683 18.0308 12.8176 17.6223 12.757L16.9105 12.6513C16.0102 12.5177 15.1338 12.2556 14.3079 11.873L13.6805 11.5824C13.317 11.414 12.885 11.5282 12.6521 11.8542L12.3681 12.2519C12.1192 12.6004 11.644 12.7068 11.2922 12.4625C10.4153 11.8536 9.64671 11.0852 9.0375 10.2081C8.79316 9.85629 8.89961 9.38098 9.24817 9.13206L9.64562 8.84823C9.97172 8.61535 10.0859 8.18334 9.91745 7.81975L9.62651 7.19178C9.24393 6.366 8.98183 5.48962 8.8482 4.58941L8.74251 3.87747C8.68187 3.46897 8.33119 3.1665 7.91821 3.1665H4.16665C3.70642 3.1665 3.33332 3.5396 3.33332 3.99984V4.83436C3.32522 12.3397 9.09184 18.1772 16.6657 18.1665Z" fill="#FF6916"/>
</g>
</svg>
