<svg width="57" height="56" viewBox="0 0 57 56" fill="none" xmlns="http://www.w3.org/2000/svg">
<g id="quality 1" clip-path="url(#clip0_73_475)">
<g id="XMLID_1364_">
<g id="XMLID_141_">
<path id="XMLID_162_" d="M50.3187 49.0266L43.2555 36.7929C44.427 35.8064 45.2366 34.4034 45.4529 32.8135C45.5998 31.7325 46.1558 30.7693 47.0185 30.1015C49.2549 28.3704 50.0688 25.3332 48.9977 22.7157C48.5844 21.7059 48.5844 20.5938 48.9977 19.5841C50.0688 16.9666 49.2549 13.9295 47.0185 12.1983C46.1558 11.5305 45.5997 10.5673 45.4529 9.48627C45.0717 6.68392 42.8483 4.4605 40.0459 4.07953C38.965 3.93251 38.0018 3.37649 37.3341 2.51378C35.6028 0.277272 32.566 -0.53647 29.9482 0.534668C28.9384 0.94792 27.8263 0.94792 26.8167 0.534668C24.1993 -0.536579 21.162 0.277272 19.4308 2.51378C18.763 3.37649 17.7998 3.93251 16.7188 4.07953C13.9163 4.46061 11.693 6.68392 11.3121 9.48637C11.165 10.5674 10.609 11.5306 9.7463 12.1984C7.50979 13.9296 6.69605 16.9668 7.76718 19.5843C8.18044 20.5939 8.18044 21.7061 7.76718 22.7158C6.69594 25.3332 7.50979 28.3704 9.7463 30.1016C10.609 30.7694 11.165 31.7326 11.3121 32.8135C11.5311 34.4243 12.3595 35.843 13.5559 36.8312L6.51478 49.0266C6.29425 49.4087 6.32544 49.886 6.59407 50.2359C6.86259 50.5857 7.31532 50.7396 7.74166 50.6255L13.8789 48.9809L15.5163 55.0918C15.6305 55.5179 15.9901 55.8332 16.4275 55.8908C16.4752 55.8972 16.5229 55.9002 16.5701 55.9002C16.956 55.9002 17.3179 55.6952 17.5143 55.3549L25.1121 42.1953C25.6882 42.1332 26.2618 41.9922 26.8166 41.7651C27.8263 41.3519 28.9385 41.3519 29.9481 41.7651C30.5264 42.0019 31.1254 42.1462 31.7263 42.2038L39.319 55.3549C39.5156 55.6953 39.8773 55.9002 40.2632 55.9002C40.3105 55.9002 40.3581 55.8972 40.406 55.8908C40.8433 55.8332 41.2029 55.5179 41.3171 55.0918L42.9546 48.9809L49.0919 50.6255C49.5177 50.7396 49.9708 50.586 50.2394 50.2359C50.5079 49.886 50.5392 49.4087 50.3187 49.0266ZM16.9417 51.984L15.7035 47.363C15.6286 47.0835 15.4459 46.8453 15.1953 46.7007C14.9448 46.5561 14.6473 46.5169 14.3678 46.5917L9.72034 47.837L15.451 37.9112C15.8562 38.0561 16.2803 38.1607 16.7187 38.2204C17.7997 38.3674 18.7629 38.9234 19.4307 39.7861C20.2783 40.881 21.4391 41.6342 22.7102 41.9928L16.9417 51.984ZM25.9903 39.7464C24.277 40.4477 22.2889 39.9149 21.1556 38.4511C20.1354 37.1331 18.664 36.2835 17.0125 36.059C15.1781 35.8096 13.7226 34.3542 13.4733 32.5197C13.2487 30.8682 12.3992 29.3969 11.0813 28.3766C9.61727 27.2434 9.08459 25.2553 9.78578 23.5419C10.4172 21.9994 10.4172 20.3005 9.78578 18.758C9.08459 17.0447 9.61727 15.0565 11.0813 13.9233C12.3992 12.9031 13.2487 11.4318 13.4733 9.7802C13.7227 7.94582 15.1781 6.49033 17.0125 6.2409C18.664 6.01644 20.1354 5.16692 21.1556 3.84897C21.9548 2.81644 23.1789 2.24722 24.4323 2.24722C24.9561 2.24722 25.4852 2.3468 25.9902 2.55348C27.5328 3.18476 29.2318 3.18476 30.7742 2.55348C32.4874 1.85219 34.4757 2.38497 35.6089 3.84897C36.6291 5.16692 38.1004 6.01644 39.7518 6.2409C41.5862 6.49033 43.0417 7.94571 43.2911 9.7802C43.5157 11.4318 44.3652 12.9031 45.6831 13.9233C47.1471 15.0565 47.6798 17.0445 46.9786 18.758C46.3473 20.3005 46.3473 21.9994 46.9786 23.5419C47.6798 25.2553 47.147 27.2434 45.6831 28.3766C44.3652 29.3968 43.5157 30.8681 43.2911 32.5196C43.0417 34.3541 41.5862 35.8096 39.7519 36.0589C38.1003 36.2834 36.629 37.1329 35.6088 38.4509C34.4755 39.9151 32.4874 40.4476 30.7742 39.7463C29.2317 39.1152 27.5329 39.1152 25.9903 39.7464ZM42.4656 46.5917C41.8835 46.4357 41.2858 46.7812 41.1298 47.363L39.8915 51.984L34.1132 41.9755C35.3612 41.6104 36.4994 40.8641 37.334 39.7861C38.0017 38.9233 38.9649 38.3673 40.0458 38.2204C40.5047 38.158 40.9477 38.0453 41.3699 37.8897L47.1129 47.837L42.4656 46.5917Z" fill="#FF6916"/>
<path id="XMLID_1190_" d="M23.426 17.1156L20.0326 20.5088C19.8281 20.7133 19.7131 20.9908 19.7131 21.28C19.7131 21.5693 19.8281 21.8467 20.0326 22.0512L26.3969 28.4157C26.6014 28.6202 26.8789 28.7351 27.1681 28.7351C27.4574 28.7351 27.7348 28.6202 27.9393 28.4157L36.801 19.5541C37.2269 19.1282 37.2269 18.4376 36.801 18.0117L33.4077 14.6183C33.2031 14.4138 32.9257 14.2988 32.6365 14.2988C32.3472 14.2988 32.0698 14.4138 31.8653 14.6183L27.1682 19.3154L24.9686 17.1157C24.7641 16.9112 24.4866 16.7962 24.1974 16.7962C23.9079 16.7961 23.6305 16.9111 23.426 17.1156ZM26.3968 21.6291C26.6013 21.8336 26.8788 21.9485 27.168 21.9485C27.4573 21.9485 27.7347 21.8336 27.9392 21.6291L32.6363 16.9319L34.4872 18.7829L27.168 26.1021L22.3462 21.2801L24.1972 19.4293L26.3968 21.6291Z" fill="#FF6916"/>
<path id="XMLID_1191_" d="M42.5953 21.5169C42.5953 18.6196 41.727 15.8332 40.0845 13.4588C38.4804 11.1404 36.2523 9.36756 33.6411 8.33209C33.0809 8.11014 32.4472 8.38401 32.2252 8.94395C32.0031 9.5039 32.2771 10.1378 32.8369 10.3598C37.4398 12.1851 40.4141 16.5645 40.4141 21.5169C40.4141 28.1322 35.0321 33.5141 28.4168 33.5141C21.8015 33.5141 16.4195 28.1322 16.4195 21.5169C16.4195 16.5644 19.3937 12.185 23.9967 10.3597C24.5566 10.1377 24.8306 9.50379 24.6085 8.94384C24.3865 8.3839 23.7525 8.10992 23.1926 8.33198C20.5813 9.36756 18.3531 11.1403 16.7491 13.4587C15.1065 15.8331 14.2382 18.6195 14.2382 21.5168C14.2382 29.3348 20.5987 35.6953 28.4168 35.6953C36.2349 35.6955 42.5953 29.3349 42.5953 21.5169Z" fill="#FF6916"/>
<path id="XMLID_1218_" d="M28.4166 9.51921C28.7035 9.51921 28.9849 9.4036 29.1876 9.19965C29.3905 8.99679 29.5073 8.71649 29.5073 8.42855C29.5073 8.14171 29.3906 7.86032 29.1876 7.65745C28.9849 7.45459 28.7035 7.33789 28.4166 7.33789C28.1298 7.33789 27.8484 7.45459 27.6456 7.65745C27.4427 7.86032 27.326 8.14171 27.326 8.42855C27.326 8.71649 27.4427 8.99679 27.6456 9.19965C27.8484 9.4036 28.1298 9.51921 28.4166 9.51921Z" fill="#FF6916"/>
</g>
</g>
</g>
<defs>
<clipPath id="clip0_73_475">
<rect width="55.8333" height="55.8333" fill="white" transform="translate(0.500031 0.0668945)"/>
</clipPath>
</defs>
</svg>
