<svg width="56" height="60" viewBox="0 0 56 60" fill="none" xmlns="http://www.w3.org/2000/svg">
<g id="Group 705" filter="url(#filter0_d_73_527)">
<g id="Group 704">
<path id="Vector" d="M28.5825 1.93563C29.1936 2.23877 29.5759 2.75065 29.9092 3.333C30.4092 4.20919 30.9383 5.06808 31.4872 5.91369C31.6063 6.09584 31.8391 6.26203 32.0494 6.31655C33.1618 6.60905 34.2848 6.86699 35.4039 7.1329C36.9674 7.50518 37.4409 8.92781 36.4052 10.1537C35.6579 11.0378 34.8946 11.9087 34.1645 12.8062C34.0243 12.9777 33.9251 13.2476 33.937 13.4656C33.9925 14.5239 34.097 15.5796 34.1724 16.6366C34.1975 16.9823 34.2438 17.3413 34.179 17.6737C33.9687 18.7599 32.8721 19.321 31.81 18.8942C30.679 18.4408 29.5653 17.9476 28.4317 17.5008C28.2306 17.4211 27.9462 17.4224 27.7438 17.5008C26.6407 17.933 25.5547 18.4089 24.4568 18.8557C23.0838 19.4154 21.8801 18.5672 21.9661 17.0794C22.0349 15.8894 22.1724 14.7034 22.2359 13.5122C22.2491 13.2662 22.1341 12.9617 21.9767 12.7663C21.2386 11.8529 20.4608 10.9727 19.7055 10.0739C18.7716 8.96238 19.2214 7.54772 20.6314 7.18608C21.7941 6.88826 22.9674 6.62633 24.1275 6.31787C24.3391 6.26203 24.5706 6.09451 24.6896 5.9097C25.2372 5.0641 25.7663 4.20387 26.2663 3.32901C26.5983 2.74799 26.9793 2.23478 27.5917 1.93164C27.9224 1.93563 28.2531 1.93563 28.5825 1.93563ZM28.0891 3.34763C27.9396 3.54972 27.8259 3.68268 27.7346 3.83026C27.138 4.8035 26.5322 5.77009 25.9581 6.75663C25.6274 7.32569 25.1658 7.65808 24.5309 7.80167C23.4079 8.05429 22.2902 8.33217 21.1711 8.60074C20.6486 8.72572 20.6156 8.82543 20.9687 9.24292C21.7491 10.1643 22.5296 11.0857 23.3166 12.0018C23.6473 12.386 23.8021 12.8248 23.765 13.3273C23.6737 14.5665 23.5785 15.8056 23.478 17.0435C23.437 17.5474 23.5177 17.6152 23.9925 17.4197C25.0428 16.9863 26.0997 16.5675 27.1367 16.1021C27.7862 15.811 28.392 15.8123 29.0388 16.0982C30.0931 16.5648 31.1605 16.9996 32.2253 17.4397C32.6367 17.6099 32.7372 17.5288 32.7042 17.0953C32.6102 15.8894 32.5296 14.6822 32.4211 13.4789C32.3682 12.8992 32.5071 12.4073 32.8893 11.9659C33.6684 11.0658 34.437 10.155 35.2068 9.24558C35.56 8.82809 35.5269 8.72572 35.0084 8.60074C33.8721 8.32818 32.7372 8.05429 31.5997 7.7897C31.0057 7.65143 30.5626 7.33898 30.2478 6.80051C29.6645 5.80067 29.0507 4.81946 28.4449 3.83292C28.3523 3.68401 28.2386 3.55105 28.0891 3.34763Z" fill="#FF8440" stroke="#FF8440" stroke-width="0.833333"/>
<path id="Vector_2" d="M43.6348 38.0176C44.976 39.4402 44.9972 41.2631 43.644 42.7282C45.3847 44.5218 44.8001 47.2262 42.3861 48.1196C42.7908 48.8868 42.9707 49.6885 42.7459 50.5527C42.3887 51.9275 41.1982 52.8795 39.7869 52.8888C38.7472 52.8954 37.7075 52.8941 36.6678 52.8888C36.1321 52.8861 35.8107 52.5989 35.812 52.1429C35.8133 51.6868 36.1321 51.405 36.6718 51.4023C37.6943 51.397 38.7181 51.4169 39.7406 51.3943C40.6017 51.3757 41.2525 50.7588 41.3451 49.9278C41.4244 49.2152 40.9271 48.4813 40.1969 48.2672C40.0117 48.2127 39.808 48.2047 39.6123 48.2034C38.7538 48.1967 37.8967 48.2047 37.0382 48.1981C36.4734 48.1941 36.1229 47.9002 36.1189 47.4442C36.1149 46.9975 36.4615 46.689 37.0303 46.685C38.4654 46.6744 39.9006 46.6757 41.3371 46.6824C41.9125 46.685 42.4112 46.5255 42.7842 46.0668C43.1731 45.5895 43.2631 45.051 43.0263 44.4846C42.7935 43.9262 42.3742 43.5486 41.7564 43.522C40.8676 43.4848 39.9747 43.5007 39.0845 43.4954C38.6718 43.4927 38.2591 43.5074 37.8477 43.4887C37.3477 43.4661 37.0223 43.163 37.0144 42.7469C37.0051 42.3134 37.3517 41.9757 37.8649 41.9704C39.0527 41.9571 40.2406 41.9691 41.4284 41.9637C42.443 41.9597 43.1414 41.3096 43.144 40.3816C43.1453 39.4548 42.4482 38.7821 41.4363 38.7701C40.2644 38.7555 39.0938 38.7688 37.9218 38.7648C37.3543 38.7635 37.0065 38.4723 37.0117 38.0163C37.017 37.5615 37.3662 37.2757 37.9363 37.2744C39.0911 37.2704 40.2459 37.2757 41.4019 37.273C42.4363 37.2704 43.1533 36.6029 43.144 35.6563C43.1361 34.7522 42.4006 34.0807 41.4006 34.0794C38.4139 34.0754 35.4271 34.0794 32.4416 34.0781C30.9535 34.0768 30.1136 33.2391 30.107 31.7381C30.1004 30.3447 30.0673 28.95 30.1149 27.5592C30.1771 25.7258 28.82 23.9069 26.1784 24.1848C25.7141 24.234 25.652 24.5584 25.652 24.936C25.6546 26.5448 25.6625 28.1535 25.6467 29.7623C25.6427 30.2064 25.6149 30.6624 25.5091 31.0906C25.0832 32.8283 23.5422 34.0435 21.7644 34.0741C20.9919 34.0874 20.2194 34.0768 19.4165 34.0768C19.4165 38.8246 19.4165 43.5273 19.4165 48.3137C19.8147 48.3137 20.2181 48.3124 20.6229 48.3137C21.9324 48.3191 22.5845 48.7751 23.0475 50.0049C23.4006 50.9449 24.0581 51.401 25.0991 51.4023C27.7062 51.4076 30.3133 51.4076 32.9205 51.3997C33.2789 51.3983 33.5752 51.4754 33.7512 51.8118C34.0197 52.3264 33.652 52.8861 33.0237 52.8888C31.3239 52.8981 29.6242 52.8914 27.9258 52.8928C26.9192 52.8928 25.9125 52.8967 24.9059 52.8914C23.4073 52.8848 22.1745 52.0033 21.6599 50.5793C21.4178 49.9079 21.2776 49.8082 20.5805 49.8055C20.2022 49.8042 19.8253 49.8055 19.4099 49.8055C19.3504 50.4251 19.152 51.0101 18.6123 51.2747C18.1308 51.51 17.5554 51.6509 17.0197 51.6576C14.2155 51.6935 11.4099 51.647 8.60569 51.6868C7.34643 51.7055 6.34379 50.9476 6.37421 49.4572C6.43241 46.5893 6.38347 43.7188 6.40331 40.8496C6.40463 40.5797 6.51178 40.2446 6.69299 40.0638C6.83453 39.9229 7.22341 39.8697 7.39802 39.9667C7.61627 40.0891 7.82394 40.3909 7.86098 40.6408C7.93241 41.1274 7.88347 41.6327 7.88347 42.1299C7.88347 44.5684 7.88347 47.0054 7.88347 49.4439C7.88347 50.0834 7.93109 50.1366 8.54749 50.1366C11.4509 50.1379 14.3557 50.1313 17.2591 50.1432C17.7208 50.1445 17.902 49.993 17.9007 49.5103C17.8887 43.9541 17.8887 38.3992 17.9007 32.8429C17.902 32.3563 17.7049 32.2047 17.2512 32.2061C14.3477 32.2154 11.443 32.2087 8.53955 32.2114C7.96945 32.2114 7.88347 32.3031 7.88347 32.8762C7.88214 34.2363 7.88479 35.5965 7.88214 36.9566C7.88082 37.5429 7.61495 37.874 7.15199 37.886C6.66389 37.8979 6.39405 37.5735 6.39273 36.9473C6.38876 35.538 6.38479 34.1273 6.39405 32.7179C6.40066 31.4682 7.16125 30.709 8.40331 30.7063C11.357 30.7023 14.3107 30.7037 17.2631 30.705C18.5197 30.705 19.1837 31.2621 19.4311 32.6063C20.394 32.5624 21.3887 32.6049 22.3504 32.4494C23.3874 32.2818 24.1255 31.2474 24.1348 30.1665C24.1493 28.5245 24.1969 26.8798 24.1242 25.2418C24.0528 23.6304 24.9377 22.5654 26.7578 22.6345C28.9615 22.717 30.7617 23.9202 31.3782 25.9385C31.5395 26.4677 31.6057 27.042 31.6189 27.5991C31.652 28.9752 31.6281 30.3513 31.6308 31.7288C31.6321 32.4082 31.7922 32.569 32.4826 32.569C35.4363 32.5717 38.39 32.5637 41.3424 32.573C42.9681 32.577 44.2088 33.5104 44.5699 34.9729C44.8265 36.006 44.5541 36.8914 43.6348 38.0176Z" fill="#FF8440" stroke="#FF8440" stroke-width="0.833333"/>
<path id="Vector_3" d="M46.9124 21.1014C46.6028 20.999 46.2893 20.91 45.9864 20.793C45.2827 20.5204 44.5843 20.0165 43.8819 20.0138C43.1981 20.0112 42.5142 20.5177 41.8277 20.7969C41.6147 20.8834 41.4018 20.9897 41.1796 21.0296C40.1968 21.2091 39.415 20.4366 39.5089 19.4089C39.5764 18.667 39.6439 17.9238 39.6756 17.1805C39.6835 16.9917 39.6002 16.7604 39.4812 16.6101C39.0195 16.0265 38.5208 15.4734 38.0486 14.8977C37.2867 13.9696 37.6716 12.8036 38.8357 12.5124C39.5539 12.3329 40.2801 12.184 40.9931 11.9873C41.1756 11.9367 41.3753 11.7931 41.4798 11.6349C41.8806 11.0286 42.2431 10.3971 42.6266 9.77884C43.3198 8.66068 44.5023 8.66467 45.202 9.78815C45.5698 10.3771 45.9057 10.9861 46.2973 11.5591C46.4296 11.7519 46.6663 11.9261 46.8899 11.9912C47.5671 12.192 48.2629 12.3303 48.9481 12.5031C50.1729 12.8116 50.5473 13.9749 49.7351 14.9455C49.2893 15.4787 48.8436 16.0105 48.3793 16.5277C48.165 16.7657 48.0896 16.9971 48.128 17.3294C48.2166 18.1019 48.2708 18.881 48.2907 19.6575C48.3118 20.4552 47.706 21.0442 46.9124 21.1014ZM39.2391 13.975C39.7933 14.6264 40.2788 15.2101 40.7774 15.7818C41.1491 16.2086 41.2735 16.6846 41.2047 17.251C41.1174 17.969 41.0883 18.6922 41.0288 19.4887C41.7682 19.1855 42.4454 18.9356 43.0976 18.6311C43.6663 18.3652 44.1968 18.3851 44.7576 18.6404C45.411 18.9369 46.0843 19.1935 46.7999 19.4887C46.7338 18.6829 46.6848 17.9424 46.6081 17.2045C46.546 16.6022 46.7272 16.1129 47.1359 15.6688C47.62 15.1423 48.0645 14.5799 48.5737 13.9763C47.8356 13.7955 47.1901 13.6027 46.5301 13.4843C45.8251 13.3567 45.3396 13.0004 45.001 12.3675C44.6782 11.7639 44.2907 11.1948 43.9057 10.5699C43.4931 11.2427 43.0975 11.8344 42.7589 12.4579C42.4401 13.0456 41.9666 13.3514 41.3304 13.4804C40.6584 13.616 39.9931 13.7941 39.2391 13.975Z" fill="#FF8440" stroke="#FF8440" stroke-width="0.833333"/>
<path id="Vector_4" d="M7.87566 19.3333C7.9365 18.5847 8.00925 17.9093 8.03439 17.2312C8.04232 17.0251 7.96957 16.7739 7.84523 16.6143C7.39682 16.0426 6.90608 15.5028 6.43915 14.9457C5.60979 13.9578 6.01058 12.7865 7.27116 12.494C7.96031 12.3344 8.65211 12.1815 9.33068 11.9874C9.52777 11.9316 9.74073 11.776 9.85449 11.6058C10.2473 11.0155 10.5966 10.3933 10.9709 9.78965C11.668 8.66617 12.8532 8.65952 13.5463 9.77636C13.9299 10.3946 14.291 11.0261 14.6931 11.6324C14.7976 11.7906 14.9973 11.9329 15.1799 11.9834C15.877 12.1776 16.586 12.3251 17.2883 12.4993C18.5185 12.8038 18.9008 13.9552 18.0952 14.9337C17.7275 15.3805 17.3717 15.8418 16.9643 16.25C16.5701 16.6462 16.4167 17.073 16.4973 17.6261C16.5807 18.1992 16.5979 18.7802 16.6587 19.3572C16.7883 20.5711 15.7963 21.3635 14.6653 20.9261C13.9749 20.6588 13.3042 20.3384 12.6111 20.0818C12.4061 20.006 12.1283 20.0074 11.9233 20.0805C11.3201 20.2959 10.7196 20.5352 10.1468 20.8224C8.76719 21.5138 7.63227 20.5126 7.87566 19.3333ZM9.37433 19.4941C10.0423 19.2189 10.6534 19.0128 11.2209 18.723C11.9458 18.3521 12.6217 18.372 13.3413 18.731C13.9021 19.0115 14.4987 19.2163 15.1442 19.4809C15.0886 18.7097 15.082 18.0276 14.9788 17.3602C14.873 16.6755 15.0608 16.1343 15.5145 15.6371C15.9881 15.1172 16.4312 14.5681 16.9338 13.9765C16.1918 13.7956 15.5278 13.6108 14.8532 13.4779C14.1958 13.3476 13.7156 13.0311 13.3915 12.4249C13.0608 11.8066 12.6667 11.2243 12.2619 10.5648C11.8664 11.2136 11.4841 11.7906 11.1534 12.3969C10.8201 13.0099 10.3413 13.3569 9.6574 13.4845C8.98544 13.6095 8.32671 13.8023 7.59656 13.9804C8.1283 14.6067 8.59788 15.1797 9.08994 15.7328C9.43915 16.125 9.61507 16.5598 9.56613 17.0903C9.49735 17.8628 9.44312 18.6366 9.37433 19.4941Z" fill="#FF8440" stroke="#FF8440" stroke-width="0.833333"/>
<path id="Vector_5" d="M12.8758 47.831C11.34 47.8257 10.1086 46.5825 10.1191 45.0482C10.1297 43.5219 11.3916 42.2601 12.8982 42.2681C14.4128 42.2774 15.6601 43.5458 15.6535 45.0695C15.6469 46.6118 14.4141 47.8363 12.8758 47.831ZM11.6377 45.0323C11.6271 45.7369 12.1602 46.306 12.8467 46.3273C13.557 46.3485 14.1363 45.7821 14.139 45.0642C14.1416 44.3515 13.6112 43.8117 12.9035 43.8051C12.1932 43.7998 11.6469 44.3289 11.6377 45.0323Z" fill="#FF8440" stroke="#FF8440" stroke-width="0.833333"/>
</g>
</g>
<defs>
<filter id="filter0_d_73_527" x="2.25407" y="1.51392" width="51.6628" height="58.4635" filterUnits="userSpaceOnUse" color-interpolation-filters="sRGB">
<feFlood flood-opacity="0" result="BackgroundImageFix"/>
<feColorMatrix in="SourceAlpha" type="matrix" values="0 0 0 0 0 0 0 0 0 0 0 0 0 0 0 0 0 0 127 0" result="hardAlpha"/>
<feOffset dy="3.33333"/>
<feGaussianBlur stdDeviation="1.66667"/>
<feComposite in2="hardAlpha" operator="out"/>
<feColorMatrix type="matrix" values="0 0 0 0 0 0 0 0 0 0 0 0 0 0 0 0 0 0 0.25 0"/>
<feBlend mode="normal" in2="BackgroundImageFix" result="effect1_dropShadow_73_527"/>
<feBlend mode="normal" in="SourceGraphic" in2="effect1_dropShadow_73_527" result="shape"/>
</filter>
</defs>
</svg>
