<svg width="61" height="56" viewBox="0 0 61 56" fill="none" xmlns="http://www.w3.org/2000/svg">
<g id="Frame" clip-path="url(#clip0_73_539)">
<g id="Group">
<path id="Vector" d="M0.166992 35.9494C0.492372 35.5255 0.917747 35.3794 1.45105 35.3874C2.95574 35.4096 4.46042 35.3953 5.9651 35.3953C6.17938 35.3953 6.39365 35.3953 6.64761 35.3953C6.64761 32.5187 6.64761 29.6993 6.64761 26.8036C5.58735 26.8036 4.54454 26.8036 3.50174 26.8036C2.97161 26.8036 2.63194 26.5496 2.55417 26.0194C2.47163 25.451 2.88431 25.0319 3.52714 25.0256C4.55565 25.0161 5.58417 25.0224 6.44762 25.0224C6.87458 24.4287 7.17139 23.873 7.59994 23.4523C8.11261 22.9491 8.83321 23.0078 9.51254 23.0078C16.6011 23.0126 23.6896 23.011 30.7781 23.011C31.013 23.011 31.2495 23.011 31.4257 23.011C31.2574 21.7299 30.9765 20.4868 30.9479 19.2375C30.8067 13.0556 33.5113 8.4502 38.8269 5.35611C39.1666 5.15767 39.3015 4.96558 39.2872 4.57663C39.257 3.78604 39.2681 2.99228 39.2808 2.2001C39.3031 0.920556 40.1395 0.0791666 41.4156 0.0759915C44.4456 0.0664664 47.4741 0.0664664 50.5041 0.0759915C51.7373 0.0791666 52.5516 0.86023 52.604 2.0985C52.6389 2.92878 52.6309 3.76223 52.6087 4.5941C52.5992 4.95605 52.7166 5.15449 53.0468 5.32753C54.5324 6.10383 55.8403 7.12144 56.9815 8.35177C57.5069 8.91852 57.5799 9.45987 57.172 9.85516C56.7418 10.2727 56.2387 10.179 55.6847 9.61068C52.0532 5.88158 47.6598 4.50678 42.6362 5.79903C37.7063 7.06746 34.543 10.3378 33.1462 15.2401C32.4526 17.6769 32.5621 20.1296 33.3081 22.5522C33.3542 22.6999 33.4176 22.8411 33.4827 23.0126C34.1874 23.0126 34.8795 23.0126 35.5715 23.0126C38.819 23.0126 42.0664 23.0221 45.3139 23.0078C46.4567 23.0031 47.3772 23.4126 48.1407 24.262C49.6216 25.9114 51.1263 27.5418 52.623 29.1786C52.7817 29.3516 52.9436 29.5199 53.1309 29.7199C54.6308 28.7626 55.8752 27.5831 56.8307 26.1321C59.5877 21.9426 59.9702 17.5372 57.9354 12.9366C57.8323 12.7048 57.7069 12.4555 57.7021 12.2126C57.6942 11.7761 57.9354 11.457 58.3783 11.357C58.8687 11.2474 59.2227 11.4506 59.4433 11.8999C60.1639 13.3652 60.6877 14.9003 60.8623 16.5244C61.5003 22.4697 59.4338 27.2624 54.6546 30.8709C54.5927 30.9185 54.5356 30.974 54.4785 31.028C54.4658 31.0391 54.4658 31.0629 54.4356 31.1487C55.0181 31.7916 55.6244 32.4631 56.2323 33.1315C57.5132 34.5365 58.7941 35.9414 60.0798 37.34C60.6972 38.0116 61.0083 38.7847 61.0019 39.707C60.9861 42.1423 61.0003 44.5792 60.9956 47.0144C60.9924 48.5321 59.9448 49.5894 58.4306 49.6069C57.8783 49.6132 57.3259 49.6084 56.718 49.6084C56.4228 51.8453 55.4022 53.6265 53.5007 54.8409C52.2452 55.6426 50.858 55.9967 49.3755 55.8839C46.7217 55.6807 43.6266 53.8694 42.9965 49.6386C37.7 49.6386 32.4002 49.6386 27.1116 49.6386C26.9148 50.3212 26.7545 51.0086 26.518 51.6691C26.2561 52.4009 25.7609 52.6549 25.2133 52.42C24.707 52.2041 24.5784 51.704 24.8514 51.0055C26.0339 47.9733 24.3864 44.8205 21.2437 44.1061C18.3962 43.4584 15.69 45.3856 15.1853 48.421C14.744 51.0658 16.8534 53.7408 19.5946 54.0456C20.631 54.1615 21.5992 53.9805 22.5277 53.5265C23.2055 53.1947 23.6769 53.3026 23.9388 53.836C24.1927 54.3504 23.9753 54.8013 23.3039 55.1505C19.2993 57.2349 14.279 54.7711 13.4758 50.3276C13.4377 50.1133 13.3933 49.9006 13.3457 49.6481C13.1219 49.6481 12.8949 49.6481 12.5695 49.6481C12.5695 50.0911 12.5838 50.5387 12.5663 50.9832C12.5394 51.6849 12.2299 51.9866 11.5331 51.9897C10.4046 51.9961 9.27604 51.9945 8.14753 51.9897C7.50947 51.9866 7.10155 51.6389 7.0952 51.1118C7.08886 50.5832 7.49994 50.2196 8.13007 50.2149C8.97923 50.2069 9.8284 50.2133 10.7204 50.2133C10.7347 50.0149 10.7474 49.8498 10.7649 49.6084C10.0189 49.6084 9.31096 49.6132 8.60465 49.6069C7.36027 49.5973 6.70157 48.9464 6.69523 47.6987C6.6857 45.8571 6.69046 44.0156 6.69523 42.1725C6.69523 41.8677 6.69364 41.6438 6.32382 41.4755C6.07938 41.3644 5.8286 40.9644 5.83019 40.6945C5.83178 40.4246 6.08573 40.0484 6.33334 39.9166C6.6492 39.7499 6.70157 39.5721 6.69523 39.2736C6.68253 38.6228 6.69205 37.9735 6.69205 37.2607C6.44127 37.248 6.23334 37.2273 6.02383 37.2273C4.49851 37.2241 2.97478 37.2114 1.44947 37.2337C0.912985 37.2416 0.490785 37.0908 0.170167 36.6606C0.166992 36.4256 0.166992 36.1875 0.166992 35.9494ZM8.50148 43.66C10.9585 43.66 13.3504 43.6663 15.744 43.6489C15.9376 43.6473 16.1455 43.506 16.3201 43.3885C18.6978 41.7772 21.677 41.7819 24.0737 43.3806C24.3165 43.5425 24.6498 43.6473 24.9403 43.6505C27.8116 43.6695 30.6813 43.6632 33.5526 43.6616C33.7414 43.6616 33.9287 43.6441 34.1033 43.6362C34.1033 37.3321 34.1033 31.1026 34.1033 24.8462C33.9113 24.8351 33.7557 24.816 33.6018 24.816C25.4847 24.8144 17.3677 24.8144 9.25065 24.816C8.53799 24.816 8.48085 24.8811 8.47926 25.605C8.47767 28.6737 8.47767 31.744 8.47926 34.8127C8.47926 34.9857 8.49672 35.1588 8.50942 35.3953C9.22684 35.3953 9.91411 35.3953 10.6014 35.3953C11.1553 35.3953 11.7108 35.3763 12.2648 35.4048C12.86 35.435 13.2362 35.816 13.2266 36.324C13.2187 36.832 12.8362 37.1845 12.2394 37.2241C12.0029 37.24 11.7648 37.2289 11.5267 37.2289C10.5252 37.2289 9.52365 37.2289 8.50942 37.2289C8.50942 38.1147 8.50942 38.9164 8.50942 39.7832C9.04748 39.7832 9.55698 39.7832 10.0665 39.7832C10.7395 39.7832 11.4124 39.7769 12.0854 39.7848C12.814 39.7943 13.2346 40.142 13.2266 40.7104C13.2187 41.2723 12.7997 41.601 12.0616 41.6137C11.6664 41.62 11.2696 41.6152 10.8744 41.6152C10.0903 41.6152 9.30779 41.6152 8.50148 41.6152C8.50148 42.3249 8.50148 42.9519 8.50148 43.66ZM55.78 35.3953C55.6943 35.2477 55.6736 35.1937 55.6387 35.154C52.6627 31.8948 49.6819 28.6388 46.7106 25.3764C46.3313 24.9605 45.8694 24.8144 45.3329 24.8144C44.3044 24.816 43.2727 24.8414 42.2458 24.8033C41.7204 24.7843 41.5331 24.9129 41.5394 25.4828C41.568 28.5705 41.5537 31.6599 41.5537 34.7476C41.5537 34.9397 41.5537 35.1334 41.5537 35.3953C41.8172 35.3953 42.0109 35.3953 42.2029 35.3953C43.1933 35.3953 44.1822 35.3953 45.1726 35.3953C45.3107 35.3953 45.4504 35.389 45.5884 35.3985C46.1805 35.4398 46.5805 35.7922 46.5979 36.2843C46.6154 36.7971 46.1995 37.2099 45.5821 37.221C44.3552 37.24 43.1283 37.2305 41.9013 37.2273C40.4617 37.2241 39.7491 36.5113 39.7491 35.0746C39.7475 31.8869 39.7491 28.7007 39.7491 25.5129C39.7491 25.3018 39.7491 25.0907 39.7491 24.8557C38.4444 24.8557 37.2095 24.8557 35.9762 24.8557C35.9762 31.1391 35.9762 37.3829 35.9762 43.6616C36.2381 43.6616 36.454 43.6616 36.6683 43.6616C39.4396 43.6616 42.2108 43.6743 44.9821 43.6473C45.3472 43.6441 45.7551 43.5155 46.0678 43.3234C48.2359 41.9867 50.5374 41.6914 52.7722 42.8948C53.9848 43.5473 55.1467 43.7108 56.4323 43.6663C57.2037 43.6393 57.9767 43.6632 58.7481 43.66C58.8989 43.6584 59.0481 43.6314 59.1877 43.6155C59.1877 43.1774 59.1877 42.7884 59.1877 42.4042C57.9957 42.2757 57.6783 42.101 57.664 41.5295C57.6592 41.3263 57.7021 41.0056 57.8307 40.9358C58.2386 40.7104 58.6973 40.5786 59.1893 40.3897C59.3512 39.6038 59.156 38.8466 58.4687 38.2322C58.2481 38.0354 58.0878 37.7623 57.8513 37.594C57.6148 37.4258 57.318 37.2464 57.0466 37.2432C54.6118 37.2162 52.177 37.2273 49.7422 37.2273C48.7994 37.2273 48.3629 36.932 48.3677 36.3018C48.3724 35.6779 48.8042 35.3953 49.7597 35.3953C51.7326 35.3937 53.7102 35.3953 55.78 35.3953ZM49.8866 44.0029C47.0963 43.9902 44.8409 46.2016 44.8234 48.9687C44.8059 51.8072 47.0614 54.0996 49.8676 54.0948C52.6198 54.09 54.8895 51.8373 54.9245 49.0782C54.9594 46.3032 52.6881 44.0156 49.8866 44.0029ZM50.7977 4.32898C50.7977 3.60665 50.7802 2.99387 50.804 2.38426C50.8199 1.99849 50.6787 1.85561 50.293 1.86196C49.3041 1.87784 48.3169 1.86672 47.328 1.86672C45.4504 1.86672 43.5727 1.8572 41.695 1.88101C41.4998 1.88419 41.149 2.06993 41.1379 2.19217C41.0839 2.8748 41.1109 3.56379 41.1109 4.32263C44.3647 3.27645 47.5502 3.26851 50.7977 4.32898ZM27.0021 47.7606C29.3528 47.7606 31.732 47.7606 34.0986 47.7606C34.0986 46.9684 34.0986 46.227 34.0986 45.4793C31.4162 45.4793 28.7766 45.4793 26.1355 45.4793C26.4291 46.2524 26.7132 47.0001 27.0021 47.7606ZM35.9556 47.8098C38.2888 47.8098 40.557 47.813 42.8251 47.8018C42.9378 47.8018 43.1171 47.7161 43.1505 47.6272C43.414 46.916 43.6504 46.1953 43.8933 45.4809C41.2633 45.4809 38.6237 45.4809 35.954 45.4809C35.9556 46.2492 35.9556 46.9906 35.9556 47.8098ZM8.49672 47.7717C10.1823 47.7717 11.8108 47.7717 13.3854 47.7717C13.6885 46.9731 13.971 46.2254 14.2647 45.4507C13.2933 45.4507 12.3441 45.4507 11.395 45.4507C10.4347 45.4507 9.47286 45.4507 8.49513 45.4507C8.49672 46.2588 8.49672 46.9874 8.49672 47.7717ZM59.2163 45.4888C58.0291 45.4888 56.918 45.4888 55.8085 45.4888C56.1054 46.2715 56.3879 47.0208 56.6863 47.8066C57.2561 47.8066 57.8481 47.8225 58.4386 47.8018C58.9274 47.7844 59.2036 47.5113 59.2131 47.0113C59.2242 46.5191 59.2163 46.027 59.2163 45.4888Z" fill="#FF6916"/>
<path id="Vector_2" d="M0.166626 30.7214C0.479308 30.2816 0.899921 30.1245 1.43799 30.1419C2.32683 30.1705 3.21885 30.1419 4.10928 30.153C4.78543 30.161 5.20446 30.515 5.21081 31.0563C5.21716 31.6056 4.814 31.9628 4.12674 31.9723C3.17758 31.9866 2.22366 32.0263 1.27927 31.9517C0.896747 31.9215 0.536448 31.6151 0.165039 31.4357C0.166626 31.196 0.166626 30.9595 0.166626 30.7214Z" fill="#FF6916"/>
<path id="Vector_3" d="M0.166687 40.3465C0.484131 39.9194 0.903156 39.748 1.43805 39.775C2.04754 39.8051 2.66021 39.7702 3.2697 39.7861C3.9522 39.8035 4.33472 40.1575 4.32044 40.7243C4.30615 41.2609 3.93474 41.5911 3.27605 41.6085C2.66497 41.626 2.05389 41.5911 1.4444 41.6196C0.91268 41.6434 0.49048 41.4768 0.166687 41.0577C0.166687 40.8211 0.166687 40.5846 0.166687 40.3465Z" fill="#FF6916"/>
<path id="Vector_4" d="M19.637 15.5997C17.1023 15.5997 14.5691 15.6013 12.0343 15.5966C11.8009 15.5966 11.4994 15.6204 11.3502 15.4934C11.1026 15.2822 10.7883 14.9457 10.8073 14.6837C10.8296 14.39 11.1518 14.0741 11.4184 13.8598C11.5724 13.736 11.874 13.7709 12.1089 13.7709C17.1181 13.7661 22.1258 13.7677 27.1351 13.7693C27.3509 13.7693 27.5715 13.7804 27.7826 13.8233C28.2287 13.917 28.4667 14.2154 28.4763 14.6631C28.4874 15.1425 28.2287 15.4473 27.7684 15.5585C27.5795 15.6045 27.3763 15.5966 27.1795 15.5981C24.6669 15.5997 22.1512 15.5997 19.637 15.5997Z" fill="#FF6916"/>
<path id="Vector_5" d="M23.0369 9.18916C25.4304 9.18916 27.8224 9.18916 30.2159 9.18916C30.4143 9.18916 30.6127 9.18598 30.8079 9.20344C31.3222 9.25107 31.6047 9.57016 31.6237 10.0559C31.6428 10.5528 31.3444 10.8624 30.8603 10.9672C30.7079 11.0005 30.5444 10.9831 30.3873 10.9831C25.5034 10.9831 20.618 10.9831 15.7341 10.9831C15.596 10.9831 15.4563 10.9926 15.3198 10.9751C14.8262 10.9132 14.4739 10.5211 14.5072 10.048C14.5421 9.54794 14.8119 9.23678 15.3262 9.20344C15.7405 9.17646 16.1563 9.18757 16.5706 9.18757C18.726 9.18916 20.8815 9.18916 23.0369 9.18916Z" fill="#FF6916"/>
<path id="Vector_6" d="M20.1799 46.1709C21.7656 46.1677 23.0639 47.4362 23.0814 49.0062C23.0988 50.6017 21.7862 51.913 20.1799 51.9051C18.6022 51.8955 17.3023 50.6001 17.3039 49.0364C17.3055 47.4679 18.6022 46.1757 20.1799 46.1709ZM20.1783 50.1016C20.791 50.1112 21.2704 49.6365 21.264 49.0269C21.2577 48.4569 20.7783 47.968 20.2149 47.9553C19.6498 47.9426 19.1625 48.4125 19.1435 48.9904C19.1197 49.6206 19.5593 50.0921 20.1783 50.1016Z" fill="#FF6916"/>
<path id="Vector_7" d="M46.8532 17.6714C47.5547 17.6714 48.1658 17.6635 48.7769 17.673C49.4594 17.6841 49.8657 18.0286 49.8721 18.5763C49.8784 19.1367 49.4911 19.4812 48.7975 19.4923C47.9087 19.5066 47.0198 19.5082 46.131 19.4923C45.3612 19.478 45.0707 19.1716 45.0691 18.3906C45.0628 16.376 45.0644 14.3598 45.0691 12.3453C45.0707 11.6595 45.412 11.2467 45.9516 11.2451C46.4976 11.2435 46.85 11.6595 46.8532 12.3342C46.8579 13.8757 46.8548 15.4171 46.8548 16.957C46.8532 17.1714 46.8532 17.3841 46.8532 17.6714Z" fill="#FF6916"/>
<path id="Vector_8" d="M24.7607 19.6813C23.4957 19.6813 22.2291 19.6861 20.9641 19.6797C20.2689 19.6749 19.8848 19.34 19.8943 18.7748C19.9038 18.2144 20.2927 17.8953 20.9942 17.8937C23.5052 17.8906 26.0178 17.8906 28.5287 17.8937C29.197 17.8953 29.6223 18.262 29.6128 18.8034C29.6033 19.3273 29.2001 19.6734 28.5589 19.6781C27.2907 19.6876 26.0257 19.6813 24.7607 19.6813Z" fill="#FF6916"/>
<path id="Vector_9" d="M15.2515 19.6781C14.5992 19.6781 13.9469 19.6924 13.2945 19.6749C12.7263 19.6591 12.3898 19.3146 12.3866 18.797C12.3834 18.2874 12.7358 17.908 13.2834 17.9001C14.5881 17.8842 15.8928 17.8842 17.1975 17.9001C17.7498 17.9064 18.1038 18.2795 18.1054 18.7859C18.1085 19.2971 17.7641 19.6575 17.207 19.6734C16.5562 19.6924 15.9039 19.6781 15.2515 19.6781Z" fill="#FF6916"/>
<path id="Vector_10" d="M56.2303 19.5084C55.9954 19.4957 55.7574 19.5005 55.5256 19.4656C55.0495 19.3957 54.7812 19.0846 54.7574 18.629C54.7336 18.1686 54.9844 17.7955 55.4463 17.7336C55.9653 17.6637 56.5065 17.6606 57.0271 17.7241C57.4842 17.7812 57.7557 18.1432 57.7414 18.6036C57.7255 19.0878 57.4398 19.4084 56.9382 19.4703C56.7065 19.4989 56.4684 19.4751 56.2319 19.4751C56.2304 19.4878 56.2303 19.4989 56.2303 19.5084Z" fill="#FF6916"/>
<path id="Vector_11" d="M35.6697 17.655C35.9253 17.6725 36.1887 17.6582 36.4363 17.7169C36.8919 17.8249 37.1538 18.1265 37.1379 18.6139C37.1236 19.0981 36.8601 19.4077 36.3871 19.46C35.938 19.5093 35.4761 19.5124 35.0253 19.4807C34.511 19.4442 34.1476 19.0536 34.165 18.5933C34.1857 18.0567 34.5095 17.7693 35.0174 17.6884C35.2301 17.655 35.4523 17.682 35.6697 17.682C35.6681 17.6725 35.6681 17.663 35.6697 17.655Z" fill="#FF6916"/>
<path id="Vector_12" d="M45.0739 8.29257C45.0739 8.07507 45.0596 7.856 45.077 7.64009C45.1183 7.1305 45.4088 6.8495 45.9151 6.81775C46.4024 6.786 46.8039 7.12097 46.842 7.61945C46.8754 8.05285 46.8706 8.49101 46.8468 8.9244C46.8182 9.43082 46.4373 9.78643 45.9691 9.79437C45.4802 9.8023 45.1072 9.42765 45.0739 8.8863C45.0628 8.68945 45.0723 8.49101 45.0723 8.29257C45.0707 8.29257 45.0723 8.29257 45.0739 8.29257Z" fill="#FF6916"/>
<path id="Vector_13" d="M20.3291 33.4265C19.5021 32.547 18.5736 31.5199 17.6006 30.5372C16.4912 29.4148 16.4832 29.3116 17.5959 28.1543C18.6133 27.097 19.8259 26.7398 21.2116 27.1812C21.7004 27.3367 22.1766 27.6527 22.5575 28.0051C23.7781 29.1322 24.9606 30.3022 26.1415 31.4707C27.3652 32.6835 27.3668 34.2568 26.151 35.4585C24.9971 36.5984 23.8241 37.7208 22.667 38.8574C20.9354 40.5577 18.5672 40.31 16.9388 38.0557C16.6277 37.6255 16.8038 37.2112 17.1594 36.8365C18.2466 35.6871 19.3164 34.5187 20.3291 33.4265ZM19.1386 37.7239C19.7085 38.27 20.5608 38.3431 21.2211 37.7271C22.494 36.5396 23.7305 35.3125 24.9685 34.0885C25.3256 33.7361 25.3875 33.2931 25.0177 32.9248C23.7273 31.6421 22.4242 30.3705 21.102 29.1211C20.5544 28.6036 19.345 28.7068 19.1402 29.1513C20.2291 30.3372 21.2465 31.4707 22.294 32.5772C22.9718 33.2931 22.9718 33.6567 22.2877 34.3695C21.2322 35.4665 20.2021 36.5873 19.1386 37.7239Z" fill="#FF6916"/>
<path id="Vector_14" d="M12.3486 32.2639C12.8628 32.2639 13.3771 32.2512 13.8898 32.2671C14.4501 32.2845 14.7961 32.6338 14.7977 33.145C14.7993 33.6546 14.4469 34.0292 13.9009 34.0371C12.8533 34.053 11.8058 34.053 10.7598 34.0371C10.2217 34.0292 9.83602 33.6419 9.83284 33.1561C9.82967 32.6687 10.2058 32.2861 10.7487 32.2671C11.282 32.2496 11.8153 32.2655 12.3486 32.2639Z" fill="#FF6916"/>
<path id="Vector_15" d="M49.8721 46.1709C51.4593 46.1741 52.7433 47.4536 52.7449 49.0316C52.7465 50.608 51.4625 51.8939 49.88 51.9035C48.2674 51.913 46.9754 50.6207 46.9849 49.0094C46.9944 47.433 48.2817 46.1677 49.8721 46.1709ZM50.9165 49.0332C50.9149 48.4538 50.4514 47.9696 49.8848 47.9537C49.3134 47.9378 48.7785 48.4633 48.7801 49.0396C48.7816 49.6317 49.288 50.1159 49.8927 50.1C50.4816 50.0858 50.9196 49.6301 50.9165 49.0332Z" fill="#FF6916"/>
</g>
</g>
<defs>
<clipPath id="clip0_73_539">
<rect width="60.8333" height="55.8333" fill="white" transform="translate(0.166748 0.0668945)"/>
</clipPath>
</defs>
</svg>
