<svg width="46" height="56" viewBox="0 0 46 56" fill="none" xmlns="http://www.w3.org/2000/svg">
<g id="Frame" clip-path="url(#clip0_73_486)">
<g id="Group">
<path id="Vector" d="M0.97053 55.9003C0.830692 55.7182 0.638414 55.5565 0.559755 55.3511C0.333975 54.7568 0.770969 54.2674 1.50512 54.2674C5.55897 54.2645 9.61283 54.2659 13.6667 54.2659C13.8823 54.2659 14.0993 54.2659 14.3892 54.2659C14.3892 53.4808 14.4008 52.7262 14.3761 51.9717C14.3717 51.8625 14.2027 51.7153 14.0775 51.6614C11.0345 50.3796 8.65872 48.3257 6.902 45.5333C6.79858 45.3687 6.50434 45.2405 6.29604 45.2376C4.91513 45.2114 3.53277 45.2303 2.15187 45.2216C1.04773 45.2158 0.511686 44.6899 0.507316 43.5843C0.498576 40.9667 0.498576 38.3506 0.507316 35.733C0.511686 34.6026 1.05065 34.0928 2.19703 34.0913C2.96031 34.0899 3.7236 34.0841 4.48688 34.0943C4.74762 34.0986 4.85978 34.0272 4.90931 33.7417C5.76727 28.8124 8.39507 25.1373 12.781 22.728C13.0811 22.5634 13.1656 22.3668 13.1627 22.039C13.1467 20.294 13.2137 18.5474 13.1379 16.8053C13.0767 15.3982 14.1867 14.6859 15.4423 15.1957C17.0476 15.8454 18.4926 16.7092 19.671 17.857C20.2842 17.0573 20.8975 16.2707 21.4903 15.4695C21.5748 15.3545 21.585 15.168 21.5894 15.0122C21.601 14.5038 21.5821 13.994 21.5981 13.4856C21.6156 12.9321 21.9361 12.6014 22.424 12.5985C22.9208 12.5956 23.2179 12.9088 23.2471 13.4783C23.2587 13.7128 23.2485 13.9488 23.2485 14.227C23.9798 14.0246 24.6658 13.8352 25.3898 13.6356C25.3898 12.8286 25.3854 12.0115 25.3912 11.1957C25.3956 10.5971 25.6971 10.2314 26.1778 10.2154C26.6833 10.1979 27.0212 10.581 27.0271 11.1943C27.0329 11.8847 27.046 12.5766 27.0212 13.2656C27.0096 13.6007 27.113 13.742 27.4495 13.809C27.9579 13.9095 28.4546 14.0755 28.9673 14.2154C29.0008 14.0391 29.0096 13.8541 29.0722 13.6895C29.2149 13.305 29.5048 13.1127 29.92 13.1535C30.3322 13.1957 30.5755 13.4346 30.641 13.8439C30.8508 15.1433 31.0095 15.5322 31.7481 16.6101C32.5958 17.8483 33.0124 19.216 32.9192 20.7179C32.8944 21.1199 33.0095 21.267 33.4203 21.3617C35.1872 21.7666 36.8259 22.4862 38.3292 23.5044C38.8405 23.8511 38.9861 24.3303 38.7094 24.7455C38.4224 25.1752 37.9577 25.2378 37.4232 24.8824C35.9388 23.8977 34.3278 23.2233 32.5915 22.8664C32.1341 23.602 31.6796 24.3347 31.1785 25.1402C31.4072 25.1402 31.6432 25.1344 31.8792 25.1417C32.4239 25.1577 32.7866 25.4782 32.7954 25.9429C32.8027 26.4075 32.4356 26.7717 31.9054 26.7731C28.1793 26.779 24.4532 26.779 20.7256 26.7731C20.1954 26.7717 19.837 26.4075 19.8487 25.937C19.8589 25.4884 20.1997 25.1737 20.711 25.1431C20.8348 25.1359 20.9587 25.1417 21.1553 25.1417C21.0504 24.9858 20.9922 24.8795 20.9164 24.7892C19.8458 23.5132 19.3549 22.0288 19.3097 20.377C19.3039 20.1745 19.2602 19.9313 19.1408 19.7783C18.0293 18.3508 16.5814 17.3952 14.8116 16.747C14.8116 17.235 14.8116 17.6618 14.8116 18.0886C14.8116 19.6152 14.7898 21.1417 14.8218 22.6683C14.8349 23.2976 14.6033 23.6632 14.0367 23.9443C10.1795 25.8598 7.72792 28.9159 6.71555 33.1066C6.57571 33.6864 6.50871 34.2836 6.42277 34.8765C6.33828 35.4591 6.07754 35.7155 5.49342 35.7199C4.40531 35.7286 3.31865 35.7228 2.19557 35.7228C2.19557 38.3477 2.19557 40.9347 2.19557 43.5829C3.42061 43.5829 4.64128 43.6732 5.84302 43.5581C7.15692 43.4343 7.92603 43.864 8.6223 45.0381C10.1241 47.5697 12.414 49.2521 15.1583 50.3068C15.9682 50.6185 16.0323 50.7059 16.0337 51.5828C16.0352 52.4524 16.0337 53.3206 16.0337 54.2645C16.3396 54.2645 16.6047 54.2645 16.8699 54.2645C18.1794 54.2645 19.4874 54.2557 20.7955 54.2703C21.116 54.2747 21.2383 54.1756 21.2718 53.8493C21.3403 53.2011 21.4554 52.5573 21.5573 51.912C21.6345 51.424 21.9346 51.1851 22.4211 51.1807C22.8567 51.1764 23.2937 51.1662 23.7292 51.1837C24.2463 51.2041 24.5828 51.5274 24.593 51.979C24.6032 52.4378 24.2376 52.7947 23.7103 52.8297C23.5311 52.8413 23.3505 52.8311 23.1028 52.8311C23.0271 53.3016 22.9543 53.7546 22.8756 54.2397C25.2266 54.2397 27.5296 54.2397 29.885 54.2397C29.8136 53.7736 29.7466 53.3351 29.6694 52.8311C28.9804 52.8311 28.3133 52.8501 27.6476 52.8253C26.9761 52.802 26.5507 52.2106 26.8508 51.6804C26.979 51.4546 27.3067 51.223 27.5587 51.2055C28.4823 51.1414 29.4116 51.1531 30.338 51.1604C30.81 51.1647 31.129 51.4022 31.2047 51.896C31.3067 52.5587 31.4189 53.2215 31.5004 53.8872C31.5325 54.1494 31.6111 54.2703 31.8995 54.2674C33.48 54.2557 35.0605 54.2616 36.7313 54.2616C36.7313 53.9382 36.7313 53.6381 36.7313 53.338C36.7313 52.2295 36.7458 51.121 36.724 50.0125C36.7138 49.5231 36.9017 49.2055 37.3081 48.936C40.3976 46.8763 42.4603 44.049 43.1128 40.3913C43.9373 35.765 43.4741 31.3368 40.3481 27.5189C39.9286 27.0062 39.9461 26.5605 40.3496 26.2284C40.7662 25.886 41.2134 25.972 41.6533 26.5168C43.8849 29.2859 45.0108 32.4482 45.072 36.0083C45.1172 38.6084 44.9307 41.1532 43.8747 43.5799C42.7618 46.1407 41.0954 48.2514 38.8361 49.8843C38.4821 50.1392 38.3583 50.4014 38.3671 50.8224C38.3933 51.9455 38.3758 53.07 38.3758 54.263C38.8419 54.263 39.2716 54.263 39.7014 54.263C41.1012 54.263 42.501 54.2703 43.9009 54.2586C44.3583 54.2543 44.7953 54.2703 45.0006 54.7626C45.2031 55.2462 44.9162 55.5827 44.6001 55.8974C30.0569 55.9003 15.5137 55.9003 0.97053 55.9003ZM26.1181 25.1431C26.5536 25.1431 26.995 25.1038 27.4247 25.1519C28.1108 25.2305 28.6716 24.9742 29.1829 24.5751C30.8056 23.3092 31.5354 21.6647 31.2062 19.6093C30.8682 17.5045 29.2484 15.8279 27.215 15.4346C25.046 15.0136 22.931 15.8978 21.789 17.7011C20.6484 19.5016 20.7227 21.8336 22.0235 23.519C22.8275 24.5605 23.7933 25.3456 25.247 25.1475C25.5325 25.1096 25.8268 25.1431 26.1181 25.1431Z" fill="#FF6916"/>
<path id="Vector_2" d="M16.0628 0.0668945C19.0679 0.0668945 21.719 2.00861 22.5799 4.83887C22.7576 5.42445 22.5639 5.88766 22.0788 6.03187C21.617 6.16879 21.2237 5.91971 21.0198 5.35161C20.2886 3.30648 18.8683 2.09746 16.7096 1.75661C14.0731 1.34001 11.2967 3.44049 10.9966 6.09451C10.6907 8.79222 12.2085 11.1491 14.6921 11.8322C17.199 12.5227 19.687 11.337 20.8188 8.91603C21.1087 8.29404 21.5282 8.08137 22.0103 8.30861C22.4677 8.52565 22.5915 8.98595 22.3337 9.57444C21.0038 12.6159 18.0395 13.9415 15.4583 13.6414C12.2013 13.2627 9.79925 10.9408 9.36225 7.89201C8.76648 3.73911 11.9114 0.0668945 16.0628 0.0668945Z" fill="#FF6916"/>
<path id="Vector_3" d="M1.97563 17.0908C1.96252 15.0967 3.6435 13.4011 5.64347 13.3895C7.642 13.3778 9.33171 15.0515 9.34628 17.0558C9.35939 19.05 7.68424 20.7426 5.67843 20.7572C3.68719 20.7732 1.98874 19.0922 1.97563 17.0908ZM7.6653 17.0952C7.6755 15.9692 6.81899 15.085 5.69737 15.0646C4.5539 15.0442 3.65369 15.9299 3.65515 17.0748C3.6566 18.1993 4.52477 19.0689 5.65076 19.0733C6.7782 19.0791 7.65511 18.2183 7.6653 17.0952Z" fill="#FF6916"/>
<path id="Vector_4" d="M41.579 13.3748C41.5761 15.4039 39.9242 17.0586 37.9097 17.0543C35.9024 17.0499 34.2433 15.3791 34.2448 13.3646C34.2462 11.3529 35.9155 9.6807 37.9213 9.68507C39.9344 9.68944 41.5819 11.35 41.579 13.3748ZM39.9213 13.3806C39.9242 12.2546 39.059 11.3762 37.9359 11.366C36.7983 11.3558 35.8718 12.2677 35.8849 13.3864C35.898 14.4906 36.7997 15.3747 37.9155 15.3762C39.0357 15.3762 39.9169 14.4993 39.9213 13.3806Z" fill="#FF6916"/>
<path id="Vector_5" d="M19.7453 6.86515C19.7453 8.90591 18.1226 10.5286 16.0847 10.5301C14.0498 10.5301 12.4242 8.903 12.4242 6.86515C12.4242 4.82438 14.0469 3.20313 16.0862 3.20459C18.1313 3.20605 19.7467 4.82293 19.7453 6.86515ZM16.1095 4.85497C14.9966 4.84623 14.0833 5.72459 14.0585 6.82873C14.0338 7.92996 14.9849 8.89717 16.0891 8.89426C17.183 8.89135 18.0963 7.97511 18.1007 6.87534C18.1065 5.76101 17.2209 4.86371 16.1095 4.85497Z" fill="#FF6916"/>
<path id="Vector_6" d="M11.2181 35.6746C11.2181 36.3461 11.2239 37.0191 11.2166 37.6906C11.2093 38.2645 10.8699 38.6447 10.3878 38.6403C9.90708 38.6359 9.58516 38.263 9.58225 37.6746C9.57642 36.349 9.57642 35.022 9.58225 33.6965C9.58516 33.092 9.88378 32.7395 10.3761 32.7278C10.883 32.7161 11.2122 33.0949 11.2181 33.7125C11.2224 34.3665 11.2181 35.0206 11.2181 35.6746Z" fill="#FF6916"/>
<path id="Vector_7" d="M30.6512 10.7528C30.6643 11.2146 30.3045 11.6006 29.8559 11.6079C29.4145 11.6152 29.0183 11.2263 29.0154 10.782C29.0125 10.3552 29.3664 9.98956 29.799 9.97062C30.2797 9.95023 30.6381 10.2794 30.6512 10.7528Z" fill="#FF6916"/>
<path id="Vector_8" d="M27.03 7.71144C27.0416 8.163 26.6687 8.55193 26.2201 8.55921C25.7714 8.5665 25.4 8.19068 25.4 7.73038C25.4 7.27736 25.7219 6.94088 26.1735 6.92485C26.6425 6.90883 27.0198 7.25405 27.03 7.71144Z" fill="#FF6916"/>
<path id="Vector_9" d="M26.0642 24.0912C23.9943 24.0373 22.411 22.3694 22.4649 20.2995C22.5158 18.3636 24.2289 16.7395 26.1837 16.773C28.2099 16.8079 29.8501 18.4947 29.8049 20.5005C29.7612 22.5398 28.0904 24.1436 26.0642 24.0912ZM28.1443 20.4452C28.1458 19.3206 27.2718 18.451 26.1414 18.4496C25.0213 18.4481 24.1153 19.3367 24.1123 20.4379C24.1094 21.5333 25.0198 22.4321 26.1356 22.4335C27.2631 22.435 28.1429 21.5653 28.1443 20.4452Z" fill="#FF6916"/>
</g>
</g>
<defs>
<clipPath id="clip0_73_486">
<rect width="44.5764" height="55.8333" fill="white" transform="translate(0.500031 0.0668945)"/>
</clipPath>
</defs>
</svg>
