<svg width="57" height="56" viewBox="0 0 57 56" fill="none" xmlns="http://www.w3.org/2000/svg">
<g id="Group 703">
<g id="Group 702">
<g id="Group">
<path id="Vector" d="M28.0429 3.61743C34.1962 7.22278 40.6822 10.0493 47.5577 11.968C48.4577 12.2182 48.6589 12.4967 48.6563 13.4354C48.646 17.3915 48.7156 21.3502 48.5918 25.3011C48.4422 30.0696 47.1657 34.5647 44.824 38.7348C41.9279 43.8952 37.8377 47.8771 32.7082 50.7939C31.3259 51.5805 29.8894 52.2716 28.2982 52.5579C27.3053 52.7358 26.4053 52.416 25.5155 52.0731C22.5987 50.9461 20.0327 49.2311 17.6704 47.2143C14.0522 44.1248 11.2411 40.4214 9.35075 36.0372C8.2676 33.5253 7.48618 30.9206 7.19218 28.1998C6.99618 26.3636 6.89818 24.5145 6.86724 22.668C6.81566 19.6068 6.85176 16.5431 6.85176 13.4819C6.85176 12.4812 7.03745 12.2259 8.00197 11.9577C14.5834 10.1267 20.8219 7.48068 26.7225 4.04296C26.97 3.89854 27.2176 3.76185 27.4678 3.62001C27.6586 3.61743 27.8495 3.61743 28.0429 3.61743ZM8.92007 19.9782C8.89944 19.9782 8.87623 19.9808 8.8556 19.9808C8.93039 22.1316 8.94586 24.285 9.09028 26.4307C9.33012 29.9793 10.3024 33.3448 11.8755 36.535C13.6344 40.1068 16.0844 43.1396 19.1043 45.7108C21.2242 47.5135 23.5401 49.0247 26.1241 50.1053C27.1402 50.5308 28.1331 50.6856 29.1647 50.1904C29.6083 49.9764 30.0751 49.8113 30.5161 49.5921C34.5005 47.627 37.8377 44.8572 40.5791 41.3756C44.2025 36.7696 46.196 31.506 46.4874 25.6725C46.6783 21.8531 46.5648 18.0208 46.5983 14.1936C46.6009 13.9383 46.5055 13.8274 46.2708 13.7604C45.4765 13.5309 44.6847 13.2962 43.8982 13.0409C38.4179 11.2562 33.1724 8.94035 28.1692 6.08032C27.8959 5.923 27.6844 5.88174 27.3852 6.05453C21.6832 9.34525 15.6666 11.9087 9.33786 13.7346C8.98712 13.8352 8.90975 14.0002 8.91233 14.3329C8.92781 16.213 8.92007 18.0956 8.92007 19.9782Z" fill="#FF8440"/>
<path id="Vector_2" d="M24.5486 29.7678C24.6569 29.6105 24.7446 29.43 24.8787 29.2959C28.1101 26.0541 31.3518 22.8227 34.5832 19.5784C35.6199 18.5391 36.8243 18.1471 38.2401 18.6062C40.3961 19.3051 41.2059 22.0284 39.7978 23.8053C39.6405 24.0039 39.4703 24.1973 39.2898 24.3752C35.2202 28.45 31.1481 32.5221 27.0759 36.5942C25.4151 38.2551 23.4809 38.2577 21.8252 36.602C19.9168 34.6961 18.0058 32.7955 16.1077 30.8819C14.7434 29.5048 14.6326 27.6273 15.8085 26.2269C16.982 24.8266 19.1044 24.5919 20.4661 25.8091C21.6885 26.9026 22.8155 28.1044 23.9786 29.2649C24.123 29.4093 24.2159 29.6053 24.3345 29.7781C24.4041 29.7755 24.4763 29.773 24.5486 29.7678ZM38.4155 22.0284C38.4284 21.1671 38.0519 20.6874 37.4484 20.5326C36.8346 20.3753 36.4168 20.6848 36.0171 21.0845C32.4994 24.6074 28.9792 28.125 25.4589 31.6427C24.6852 32.4164 24.2056 32.4189 23.4396 31.653C22.1192 30.3352 20.7988 29.0148 19.4784 27.6969C18.7898 27.0083 18.0187 26.9258 17.4616 27.4725C17.0413 27.8852 16.8298 28.7801 17.6473 29.4944C18.0419 29.84 18.3952 30.2346 18.7692 30.606C20.3268 32.1636 21.8794 33.7239 23.4422 35.2738C24.0947 35.9211 24.7961 35.9134 25.4538 35.2738C25.6369 35.0959 25.8148 34.9128 25.9953 34.7323C29.9437 30.7839 33.8946 26.8407 37.8327 22.882C38.1163 22.5958 38.2994 22.2038 38.4155 22.0284Z" fill="#FF8440"/>
<path id="Vector_3" d="M10.9214 18.0828C10.9214 17.4923 10.9162 16.9043 10.9214 16.3137C10.9291 15.6432 11.1587 15.3208 11.7853 15.099C13.5674 14.4646 15.3469 13.8327 17.1315 13.2035C17.8149 12.9636 18.3952 13.1777 18.6144 13.7425C18.8439 14.3279 18.5551 14.8927 17.8433 15.1557C16.412 15.6844 14.9832 16.2183 13.5339 16.6928C13.0929 16.8372 12.982 17.0384 13 17.4639C13.0336 18.2917 13.0155 19.1221 13.0078 19.95C13 20.6695 12.5874 21.1286 11.9659 21.126C11.3676 21.1234 10.9472 20.685 10.9266 19.9912C10.9059 19.3594 10.9214 18.7224 10.9214 18.0828Z" fill="#FF8440"/>
<path id="Vector_4" d="M39.4755 36.7051C40.2672 36.7051 40.7417 37.5123 40.3523 38.2395C40.1511 38.6161 39.8855 38.9616 39.6353 39.3098C38.057 41.4967 36.1667 43.3819 34.0494 45.0428C33.3789 45.5689 32.6026 45.3729 32.3447 44.625C32.2132 44.2407 32.2957 43.8926 32.5768 43.614C32.8476 43.3458 33.1442 43.1034 33.4407 42.861C35.3749 41.2724 37.0513 39.4516 38.4516 37.373C38.7972 36.8624 39.0551 36.7051 39.4755 36.7051Z" fill="#FF8440"/>
<path id="Vector_5" d="M30.8796 44.9732C31.4366 45.0016 31.8879 45.507 31.8467 46.0563C31.8054 46.6082 31.2715 47.0853 30.7171 47.0647C30.1446 47.0441 29.719 46.5773 29.7422 45.997C29.768 45.3961 30.2683 44.9448 30.8796 44.9732Z" fill="#FF8440"/>
<path id="Vector_6" d="M21.6215 12.8888C21.6319 13.4485 21.1264 13.9462 20.5461 13.9436C20.0278 13.941 19.5532 13.4613 19.5378 12.9223C19.5223 12.3937 20.0174 11.8856 20.5668 11.865C21.1058 11.8469 21.6112 12.3369 21.6215 12.8888Z" fill="#FF8440"/>
</g>
</g>
</g>
</svg>
