<svg width="57" height="56" viewBox="0 0 57 56" fill="none" xmlns="http://www.w3.org/2000/svg">
<g id="Frame" clip-path="url(#clip0_73_515)">
<g id="Group">
<path id="Vector" d="M56.1669 33.0976C55.928 34.0874 55.6482 35.0622 54.974 35.8595C54.671 36.2186 54.3448 36.5626 53.9995 36.8807C53.1479 37.6671 52.7084 38.6255 52.778 39.7832C52.8777 41.4625 52.5064 42.982 51.3873 44.2831C50.6557 45.1337 49.7331 45.6825 48.6877 46.0429C47.5098 46.4484 46.7537 47.2471 46.3211 48.4116C45.2729 51.2377 43.2953 52.577 40.2763 52.4814C38.947 52.4391 37.892 52.8883 37.013 53.8849C35.2347 55.9014 32.606 56.4625 30.1944 55.3007C28.9019 54.6781 27.6722 54.629 26.392 55.2747C24.0172 56.4721 21.1907 55.8386 19.516 53.8822C18.6385 52.8569 17.5439 52.4145 16.1968 52.4828C13.792 52.6043 11.9399 51.6377 10.7102 49.5502C10.4919 49.1789 10.3363 48.7652 10.1889 48.3584C9.7808 47.2293 9.02606 46.4484 7.89053 46.0607C6.33054 45.5282 5.11313 44.5985 4.35565 43.1076C3.86705 42.1451 3.6828 41.1212 3.7524 40.0522C3.80972 39.1757 3.67461 38.3415 3.15871 37.6207C2.88711 37.2411 2.54454 36.9066 2.2047 36.5831C0.891744 35.3284 0.253009 33.7939 0.39495 31.9904C0.448178 31.3187 0.622875 30.6169 0.916311 30.0135C1.58507 28.6332 1.58644 27.3267 0.913581 25.9478C0.067394 24.2139 0.164296 22.4527 1.10739 20.7858C1.45678 20.1673 1.96722 19.6171 2.48449 19.1201C3.36479 18.2751 3.82883 17.2907 3.7524 16.0688C3.64868 14.4046 4.05539 12.9055 5.16772 11.6317C5.83921 10.8631 6.6581 10.3061 7.62712 9.99344C8.9701 9.55929 9.80127 8.67051 10.2926 7.34895C11.2575 4.75224 13.2556 3.38562 16.0207 3.47027C17.492 3.51532 18.6753 3.08936 19.6239 1.9562C20.5383 0.862637 21.7898 0.358859 23.1424 0.0639648C23.6514 0.0639648 24.1592 0.0639648 24.6682 0.0639648C25.4939 0.369781 26.3047 0.727477 27.1508 0.9623C27.6763 1.10838 28.285 1.20532 28.7982 1.08108C29.8409 0.829871 30.844 0.412104 31.8622 0.0639648C32.3713 0.0639648 32.879 0.0639648 33.3881 0.0639648C34.8675 0.365685 36.145 1.01281 37.1399 2.1842C37.9152 3.09755 38.921 3.48256 40.1248 3.47163C40.8782 3.46481 41.6616 3.48938 42.3808 3.68461C44.3885 4.22798 45.6605 5.59323 46.3293 7.54008C46.7332 8.71556 47.518 9.50195 48.6945 9.90606C49.7399 10.2651 50.6612 10.8153 51.3914 11.6672C52.4941 12.9519 52.8804 14.451 52.7794 16.1111C52.7071 17.3112 53.1533 18.2983 54.0418 19.1038C54.3762 19.4069 54.6833 19.7441 54.9767 20.0881C55.6537 20.8841 55.928 21.8616 56.1696 22.8486C56.1696 23.3579 56.1696 23.8658 56.1696 24.375C55.8639 25.201 55.5063 26.0119 55.2715 26.857C55.1255 27.3813 55.0286 27.9916 55.1528 28.5049C55.4053 29.5479 55.8216 30.55 56.1696 31.5699C56.1669 32.0805 56.1669 32.5897 56.1669 33.0976ZM16.2309 5.65877C14.2833 5.53862 12.9772 6.34822 12.3235 8.17629C11.6342 10.1054 10.3486 11.3669 8.42281 12.0495C6.67584 12.668 5.8242 13.98 5.94293 15.8217C6.07123 17.8095 5.39291 19.4273 3.9271 20.7653C2.43672 22.1264 2.16239 23.5108 3.01677 25.3211C3.85476 27.0946 3.86022 28.8366 3.02632 30.6115C2.17058 32.4327 2.43262 33.828 3.91072 35.1728C5.39564 36.523 6.07259 38.1558 5.94293 40.1628C5.82556 41.969 6.69222 43.2988 8.40097 43.8954C10.354 44.578 11.6424 45.8572 12.3357 47.8055C12.9663 49.5789 14.2751 50.4172 16.1518 50.2984C18.0953 50.1755 19.6907 50.8349 21.0037 52.2685C22.4258 53.8207 23.7866 54.0774 25.6959 53.1859C27.4142 52.3845 29.1175 52.3859 30.8358 53.1886C32.748 54.0815 34.0896 53.8235 35.5267 52.2616C36.8424 50.8322 38.4379 50.1728 40.3814 50.297C42.2525 50.4158 43.5655 49.5694 44.1933 47.7986C44.8771 45.8709 46.1505 44.593 48.079 43.909C49.8696 43.2728 50.7021 41.9553 50.5834 40.0467C50.4647 38.1463 51.1075 36.5708 52.5037 35.2834C54.1114 33.8007 54.3667 32.4928 53.4522 30.5063C52.6784 28.8244 52.6702 27.1492 53.4454 25.4645C54.3735 23.4494 54.1155 22.1578 52.4791 20.6438C51.0993 19.3673 50.4647 17.8027 50.582 15.9241C50.7021 13.9854 49.8805 12.683 48.0462 12.0277C46.1382 11.345 44.8825 10.074 44.1988 8.16946C43.545 6.34685 42.2375 5.53316 40.2913 5.65194C38.4365 5.76526 36.8806 5.1427 35.6168 3.77881C34.0746 2.11457 32.7944 1.85381 30.754 2.79447C29.0875 3.56174 27.4293 3.56037 25.7642 2.79447C25.4039 2.62791 25.0354 2.45452 24.6519 2.36714C23.1246 2.01901 21.9359 2.6047 20.9368 3.74059C19.6907 5.15499 18.0966 5.7516 16.2309 5.65877Z" fill="#FF6916"/>
<path id="Vector_2" d="M38.9727 35.7712C39.4736 37.8382 38.6165 39.4424 36.7685 39.8875C36.4737 39.9585 36.1571 39.9612 35.8513 39.9612C32.9456 39.9666 30.0399 39.9475 27.1342 39.9721C25.7722 39.983 24.4647 39.7564 23.2008 39.2649C22.9197 39.1557 22.7491 39.1994 22.4789 39.3605C22.0134 39.6363 21.4689 39.9134 20.9462 39.9366C19.3507 40.0103 17.7511 39.9776 16.1529 39.9585C14.8523 39.9421 13.7809 38.8963 13.7768 37.602C13.7604 33.225 13.7618 28.8467 13.7754 24.4697C13.7795 23.17 14.84 22.116 16.1365 22.0982C17.7525 22.0764 19.3698 22.0627 20.9857 22.1132C21.4307 22.1269 21.9002 22.3249 22.2973 22.546C22.5648 22.6948 22.7232 22.6921 22.9715 22.5597C24.0511 21.9849 25.1266 21.4006 25.7653 20.2975C26.0533 19.7991 26.3003 19.2694 26.5051 18.7302C26.9882 17.4605 27.4304 16.1758 27.8985 14.9006C28.2493 13.9436 28.7638 13.721 29.7247 14.0897C32.4802 15.1464 33.9447 18.109 33.1217 20.9637C33.018 21.3241 32.8979 21.6818 32.7696 22.0914C34.3159 22.0914 35.8036 22.0887 37.2912 22.0928C39.1051 22.0969 40.3102 23.1631 40.5245 24.9489C40.5327 25.0212 40.5668 25.1045 40.5422 25.1632C40.2078 25.9824 40.6309 26.4247 41.2205 26.9654C42.5703 28.2036 42.3656 30.3757 40.8998 31.498C40.7715 31.5963 40.635 31.685 40.4781 31.7956C41.0172 33.4913 40.5149 34.8087 38.9727 35.7712ZM29.6346 16.558C29.2361 17.6557 28.8457 18.7028 28.4759 19.7582C27.9245 21.331 26.9991 22.6266 25.6138 23.5604C24.9997 23.9741 24.32 24.2908 23.6894 24.684C23.5393 24.7782 23.3769 24.9994 23.3755 25.1619C23.3578 28.9941 23.3592 32.8277 23.3728 36.66C23.3728 36.7965 23.5038 37.015 23.6198 37.0532C24.3214 37.2867 25.0338 37.6375 25.749 37.6566C29.1774 37.7508 32.6099 37.7577 36.0397 37.7768C36.5965 37.7795 36.9773 37.3713 36.9691 36.9017C36.9609 36.4293 36.5815 36.0688 36.0165 36.0456C35.4719 36.0224 34.9274 36.0415 34.3828 36.0388C33.553 36.0334 33.0494 35.6088 33.0644 34.9289C33.078 34.2667 33.5653 33.8667 34.3746 33.864C35.4105 33.8599 36.445 33.8667 37.4809 33.8599C37.8849 33.8571 38.2834 33.737 38.3913 33.3179C38.4581 33.0571 38.4267 32.6612 38.2657 32.4782C38.0801 32.268 37.7075 32.141 37.41 32.1301C36.3945 32.0891 35.3764 32.1178 34.3596 32.1137C33.5571 32.1096 33.0685 31.6987 33.0644 31.0352C33.0603 30.3689 33.5503 29.9416 34.3432 29.9389C35.7967 29.9334 37.2489 29.9416 38.7024 29.9334C38.9345 29.932 39.2279 29.9457 39.3821 29.8174C39.6114 29.6276 39.8762 29.319 39.8762 29.061C39.8748 28.803 39.6087 28.4958 39.378 28.3074C39.2224 28.1804 38.9304 28.1941 38.6983 28.1927C37.2994 28.1832 35.9018 28.1886 34.5029 28.1873C33.5666 28.1873 33.0562 27.7941 33.0657 27.0869C33.0753 26.381 33.5762 26.0124 34.5288 26.011C35.4555 26.0097 36.3822 26.0233 37.3076 26.0069C38.0473 25.9933 38.465 25.5182 38.2875 24.9011C38.1347 24.37 37.6979 24.2622 37.2121 24.2622C35.2686 24.2622 33.3251 24.2649 31.3816 24.2608C30.4003 24.2581 29.9321 23.6096 30.2337 22.6703C30.4603 21.9631 30.7196 21.2668 30.9421 20.5582C31.4402 18.9636 30.9694 17.4741 29.6346 16.558ZM21.1809 31.0406C21.1809 28.99 21.17 26.9394 21.1891 24.8888C21.1932 24.4123 21.0335 24.2499 20.5599 24.2594C19.236 24.2826 17.9108 24.2799 16.5856 24.2608C16.127 24.254 15.9346 24.4 15.9359 24.8847C15.9482 28.9859 15.9468 33.0871 15.9373 37.1897C15.9359 37.6375 16.1011 37.8014 16.546 37.7959C17.8699 37.7781 19.1951 37.774 20.519 37.7973C21.0117 37.8054 21.1932 37.6444 21.1877 37.1392C21.1686 35.1063 21.1809 33.0735 21.1809 31.0406Z" fill="#FF6916"/>
<path id="Vector_3" d="M6.21155 27.9629C6.43401 20.7558 9.24827 14.8907 14.9177 10.4713C18.2465 7.87599 22.0516 6.43838 26.2594 6.05747C30.5463 5.66974 34.5889 6.49162 38.4199 8.42891C38.9085 8.67603 39.277 8.99686 39.2552 9.58392C39.2279 10.3034 38.5072 10.7963 37.8207 10.5341C37.0947 10.257 36.4095 9.87199 35.6821 9.6003C29.0026 7.10325 22.6549 7.80363 16.7903 11.842C12.5129 14.7883 9.91294 18.9427 8.86066 24.0337C8.03767 28.0162 8.42938 31.8962 9.98937 35.6548C10.0794 35.8718 10.1845 36.0848 10.2541 36.3087C10.4507 36.9395 10.1832 37.5497 9.63861 37.7504C9.05583 37.9634 8.46213 37.73 8.22056 37.0897C7.75243 35.8555 7.29521 34.6131 6.92535 33.3475C6.6674 32.4655 6.51727 31.544 6.39853 30.6293C6.28252 29.7337 6.26751 28.8231 6.21155 27.9629Z" fill="#FF6916"/>
<path id="Vector_4" d="M28.3612 50.0776C25.319 50.0229 22.412 49.4222 19.6209 48.2427C19.1405 48.0392 18.7747 47.7484 18.7556 47.175C18.727 46.3381 19.4776 45.8794 20.3647 46.1702C21.619 46.5825 22.8555 47.0795 24.1385 47.3593C28.7952 48.3724 33.28 47.788 37.4768 45.5285C42.8583 42.6301 46.2622 38.1562 47.5915 32.1846C48.5905 27.6984 48.0528 23.3569 46.0397 19.2106C45.921 18.9662 45.7913 18.7259 45.6862 18.4761C45.4078 17.8153 45.603 17.22 46.1762 16.9538C46.7276 16.6972 47.3431 16.8937 47.6365 17.5081C48.1374 18.5525 48.652 19.5983 49.0368 20.6878C50.0018 23.4183 50.4262 26.2512 50.2543 29.1414C49.9554 34.1533 48.2002 38.6067 44.8905 42.4035C41.5317 46.2576 37.3185 48.6686 32.3014 49.6243C31.0062 49.87 29.6755 49.9315 28.3612 50.0776Z" fill="#FF6916"/>
<path id="Vector_5" d="M13.4492 41.7032C14.0661 41.6977 14.6134 42.2288 14.6093 42.8295C14.6052 43.3947 14.1003 43.8917 13.5243 43.8971C12.9129 43.904 12.3601 43.3647 12.3656 42.7681C12.371 42.1947 12.8665 41.7086 13.4492 41.7032Z" fill="#FF6916"/>
<path id="Vector_6" d="M41.989 13.1476C41.9999 12.5647 42.4926 12.0759 43.0658 12.0786C43.6458 12.0814 44.1713 12.6165 44.1727 13.2022C44.174 13.8016 43.6486 14.3135 43.0562 14.2931C42.4571 14.2712 41.978 13.7579 41.989 13.1476Z" fill="#FF6916"/>
</g>
</g>
<defs>
<clipPath id="clip0_73_515">
<rect width="55.8333" height="55.8333" fill="white" transform="translate(0.333374 0.0668945)"/>
</clipPath>
</defs>
</svg>
