<svg width="21" height="20" viewBox="0 0 21 20" fill="none" xmlns="http://www.w3.org/2000/svg">
<g id="brand / twitter">
<path id="coolicon" d="M16.896 5.9168C17.6132 5.48807 18.1498 4.81299 18.4056 4.0176C17.7317 4.41744 16.9944 4.6991 16.2256 4.8504C15.1597 3.72282 13.4708 3.44842 12.1027 4.18052C10.7346 4.91263 10.026 6.46999 10.3728 7.9824C7.6125 7.84382 5.04079 6.53993 3.29761 4.3952C2.38788 5.96433 2.85277 7.97022 4.36001 8.9792C3.81498 8.96168 3.28203 8.81411 2.80561 8.5488C2.80561 8.5632 2.80561 8.5776 2.80561 8.592C2.80593 10.2265 3.95791 11.6345 5.56001 11.9584C5.05446 12.0959 4.52418 12.1162 4.00961 12.0176C4.46017 13.4154 5.74845 14.373 7.21681 14.4016C6.00068 15.3561 4.49879 15.8737 2.95281 15.8712C2.67879 15.8716 2.40498 15.8558 2.13281 15.824C3.70272 16.8328 5.52991 17.3683 7.39601 17.3664C9.99221 17.3842 12.4872 16.3607 14.323 14.5248C16.1588 12.6889 17.1821 10.1938 17.164 7.5976C17.164 7.4488 17.1605 7.3008 17.1536 7.1536C17.826 6.66768 18.4063 6.06572 18.8672 5.376C18.2408 5.65365 17.5764 5.83594 16.896 5.9168Z" fill="#2C2C2C"/>
</g>
</svg>
