<svg width="23" height="24" viewBox="0 0 23 24" fill="none" xmlns="http://www.w3.org/2000/svg">
<g id="brand / youtube">
<path id="coolicon" d="M11.5056 18.7107H11.4869C11.429 18.7107 5.63956 18.6995 4.1789 18.3028C3.37569 18.0864 2.74842 17.4588 2.5325 16.6555C2.26984 15.1737 2.143 13.671 2.15356 12.1661C2.14678 10.6588 2.27705 9.15401 2.54276 7.67028C2.76462 6.86622 3.38914 6.2357 4.19103 6.00615C5.61156 5.63281 11.2414 5.63281 11.4804 5.63281H11.5C11.5588 5.63281 17.3632 5.64401 18.8089 6.04068C19.6104 6.25815 20.2364 6.8845 20.4534 7.68615C20.7244 9.17345 20.8517 10.6834 20.8333 12.1951C20.8398 13.7006 20.7093 15.2035 20.4432 16.6853C20.2244 17.4877 19.5968 18.1139 18.794 18.3308C17.3753 18.7069 11.7445 18.7107 11.5056 18.7107ZM9.6389 9.37081L9.63423 14.9708L14.4988 12.1708L9.6389 9.37081Z" fill="#2C2C2C"/>
</g>
</svg>
